<svg xmlns="http://www.w3.org/2000/svg" fill="none" viewBox="0 0 24 24" id="Instagram-Icon--Streamline-Svg-Logos" height="24" width="24">
  <desc>
    Instagram Icon Streamline Icon: https://streamlinehq.com
  </desc>
  <path fill="#ffffff" d="M11.999975 2.36716c3.1374 0 3.509 0.01194 4.747975 0.06847 1.145625 0.052285 1.767775 0.243695 2.181875 0.40457 0.5484 0.21315 0.939875 0.467825 1.351 0.878975 0.41115 0.411125 0.665825 0.8026 0.878925 1.351 0.160925 0.4141 0.352325 1.03625 0.404625 2.181825 0.056525 1.239025 0.068475 1.610625 0.068475 4.748025 0 3.1374 -0.01195 3.509 -0.068475 4.747975 -0.0523 1.145625 -0.2437 1.767775 -0.404625 2.18185 -0.2131 0.548425 -0.467775 0.939875 -0.878925 1.351025 -0.411125 0.41115 -0.8026 0.665825 -1.351 0.878925 -0.4141 0.160925 -1.03625 0.352325 -2.181875 0.404625 -1.2388 0.056525 -1.610375 0.06845 -4.747975 0.06845 -3.137575 0 -3.509175 -0.011925 -4.747975 -0.06845 -1.145625 -0.0523 -1.767775 -0.2437 -2.181825 -0.404625 -0.54845 -0.2131 -0.9399 -0.467775 -1.35105 -0.878925 -0.41115 -0.41115 -0.665825 -0.8026 -0.878925 -1.351025 -0.160925 -0.414075 -0.3523325 -1.036225 -0.4046175 -2.1818 -0.05653 -1.239025 -0.06847 -1.610625 -0.06847 -4.748025 0 -3.1374 0.01194 -3.509 0.06847 -4.747975 0.052285 -1.145625 0.2436925 -1.767775 0.4046175 -2.181875 0.2131 -0.5484 0.467775 -0.939875 0.878925 -1.351 0.41115 -0.41115 0.8026 -0.665825 1.35105 -0.878975 0.41405 -0.160875 1.0362 -0.352285 2.181775 -0.40457 1.239025 -0.05653 1.610625 -0.06847 4.748025 -0.06847Zm0 -2.11716c-3.191125 0 -3.591225 0.013525 -4.844475 0.07071 -1.2507 0.0570875 -2.1048 0.2556875 -2.85225 0.5461725 -0.77265 0.30028 -1.427925 0.7020525 -2.081145 1.3552675 -0.6532175 0.653225 -1.05499 1.308475 -1.3552675 2.08115 -0.290485 0.747425 -0.489085 1.60155 -0.546175 2.852225C0.26348 8.40875 0.25 8.8089 0.25 12.000025s0.01348 3.591275 0.0706625 4.844475c0.05709 1.2507 0.25569 2.1048 0.546175 2.85225 0.3002775 0.7726 0.70205 1.427925 1.3552675 2.08115 0.65322 0.6532 1.308495 1.054975 2.081145 1.355275 0.74745 0.290475 1.60155 0.489075 2.85225 0.546175 1.25325 0.057175 1.65335 0.07065 4.844475 0.07065s3.591275 -0.013475 4.8445 -0.07065c1.250675 -0.0571 2.1048 -0.2557 2.852225 -0.546175 0.772675 -0.3003 1.427925 -0.702075 2.08115 -1.355275 0.653225 -0.653225 1.054975 -1.3085 1.355275 -2.08115 0.290475 -0.74745 0.489075 -1.60155 0.546175 -2.85225 0.057175 -1.2532 0.0707 -1.65335 0.0707 -4.844475s-0.013525 -3.591275 -0.0707 -4.8445c-0.0571 -1.250675 -0.2557 -2.1048 -0.546175 -2.852225 -0.3003 -0.772675 -0.70205 -1.427925 -1.355275 -2.08115 -0.653225 -0.653215 -1.308475 -1.0549875 -2.08115 -1.3552675 -0.747425 -0.290485 -1.60155 -0.489085 -2.852225 -0.5461725C15.59125 0.263525 15.1911 0.25 11.999975 0.25Zm0 5.716225c-3.33235 0 -6.0338 2.701425 -6.0338 6.0338 0 3.33235 2.70145 6.0338 6.0338 6.0338 3.332375 0 6.0338 -2.70145 6.0338 -6.0338 0 -3.332375 -2.701425 -6.0338 -6.0338 -6.0338Zm0 9.9505c-2.1631 0 -3.9167 -1.7536 -3.9167 -3.9167s1.7536 -3.9167 3.9167 -3.9167 3.9167 1.7536 3.9167 3.9167 -1.7536 3.9167 -3.9167 3.9167Zm7.682175 -10.1889c0 0.77875 -0.63125 1.410025 -1.409975 1.410025 -0.77875 0 -1.410025 -0.631275 -1.410025 -1.410025 0 -0.778725 0.631275 -1.409975 1.410025 -1.409975 0.778725 0 1.409975 0.63125 1.409975 1.409975Z" stroke-width="0.25"></path>
</svg>