<svg xmlns="http://www.w3.org/2000/svg" fill="none" viewBox="0 0 24 24" id="Spring-Icon--Streamline-Svg-Logos" height="24" width="24">
  <desc>
    Spring Icon Streamline Icon: https://streamlinehq.com
  </desc>
  <path fill="#6db33f" d="M3.824875 3.56575c4.643 -4.497895 12.06695 -4.3769825 16.56485 0.2902 0.507825 -0.6771 0.9431 -1.42676 1.257475 -2.2005925C23.122325 6.15325 24.01705 9.9257 23.6785 12.85175c-0.169275 2.466575 -1.13655 4.83645 -2.732575 6.72265 -4.15935 4.9332 -11.559125 5.56185 -16.492325 1.402575l-0.094375 -0.08395 -0.005 -0.0033c-0.01545 -0.010775 -0.0307 -0.021975 -0.0457 -0.03365 -0.045025 -0.035025 -0.085925 -0.07315 -0.122675 -0.11385l-0.013225 -0.015075 -0.1543 -0.137075c-0.15045 -0.128975 -0.300925 -0.25795 -0.434425 -0.4039l-0.049225 -0.055575C-0.963215 15.4876 -0.8181225 8.06365 3.824875 3.56575Zm1.741125 15.74265c-0.435275 -0.33855 -1.064025 -0.290175 -1.402575 0.1451 -0.2977 0.38275 -0.296225 0.915075 0.0044 1.268175l0.0048 0.005475 0.1866 0.165875 0.018325 0.012475c0.422675 0.27795 0.991375 0.2205 1.315775 -0.17235l0.017775 -0.022175c0.33855 -0.435275 0.266 -1.064025 -0.1451 -1.402575Zm15.9603 -16.443925C20.317175 5.4036 17.318575 7.3382 14.731075 7.94275c-2.4424 0.580375 -4.57045 0.096725 -6.8194 0.967275 -5.12665 1.958775 -5.0299 8.0527 -2.224775 9.4311l0.169275 0.096725s2.02625 -0.402875 4.02995 -0.934925l0.17165 -0.0459c0.8003 -0.215675 1.58765 -0.450775 2.2309 -0.68775 3.33715 -1.2333 7.01285 -4.280275 8.22195 -7.810875 -0.628725 3.6757 -3.7966 7.2305 -6.964475 8.8507 -1.692775 0.870575 -2.9986 1.064025 -5.779575 2.031325 -0.33855 0.1209 -0.60455 0.241825 -0.60455 0.241825 0.033925 -0.0047 0.067875 -0.00925 0.101725 -0.0137l0.067575 -0.008775 0.067225 -0.00845c0.614175 -0.076125 1.16605 -0.114175 1.16605 -0.114175 3.9417 -0.19345 10.132375 1.112375 13.01005 -2.7326 2.95025 -3.917525 1.30585 -10.253275 -0.04835 -14.340075Z" stroke-width="0.25"></path>
  <path fill="#ffffff" d="M5.56595 19.308325c0.4111 0.33855 0.483625 0.967275 0.145075 1.402575 -0.33855 0.435275 -0.967275 0.483625 -1.402575 0.145075 -0.435275 -0.33855 -0.483625 -0.967275 -0.145075 -1.402575 0.33855 -0.435275 0.967275 -0.483625 1.402575 -0.145075Zm15.960275 -16.44395c1.354225 4.0868 2.9986 10.42255 0.048375 14.340075 -2.8777 3.845 -9.06835 2.53915 -13.01005 2.7326 0 0 -0.551875 0.038075 -1.16605 0.114175l-0.067225 0.008475c-0.0562 0.007175 -0.11275 0.01465 -0.1693 0.02245 0 0 0.266 -0.1209 0.60455 -0.241825 2.78095 -0.9673 4.0868 -1.16075 5.77955 -2.0313 3.1679 -1.620225 6.335775 -5.175 6.9645 -8.850725 -1.2091 3.530625 -4.884825 6.577575 -8.221975 7.810875 -2.2973 0.846375 -6.432475 1.668575 -6.432475 1.668575l-0.169275 -0.096725c-2.80515 -1.378375 -2.901875 -7.472325 2.224775 -9.431075 2.24895 -0.870575 4.376975 -0.386925 6.8194 -0.9673 2.5875 -0.60455 5.5861 -2.539125 6.7952 -5.078275Z" stroke-width="0.25"></path>
</svg>