<svg role="img" viewBox="0 0 32 32" xmlns="http://www.w3.org/2000/svg" id="Velog--Streamline-Simple-Icons" height="32" width="32">
  <desc>
    Velog Streamline Icon: https://streamlinehq.com
  </desc>
  <title>Velog</title>
  <path d="M4 0C1.784 0 0 1.784 0 4v24c0 2.2159999999999997 1.784 4 4 4h24c2.2159999999999997 0 4 -1.784 4 -4V4c0 -2.2159999999999997 -1.784 -4 -4 -4H4Zm9.177333333333333 8.333333333333332c0.84 0 1.3399999999999999 0.39999999999999997 1.5 1.2l1.9506666666666668 11.070666666666668c0.62 -0.82 1.128 -1.5106666666666666 1.5279999999999998 -2.0706666666666664 0.62 -0.88 1.1906666666666665 -1.8906666666666665 1.7106666666666666 -3.030666666666667 0.54 -1.14 0.8106666666666666 -2.16 0.8106666666666666 -3.0599999999999996 0 -0.54 -0.15066666666666667 -0.9693333333333333 -0.45066666666666666 -1.2893333333333332 -0.27999999999999997 -0.33999999999999997 -0.8106666666666666 -0.7693333333333332 -1.5906666666666667 -1.2893333333333332 0.7999999999999999 -1.02 1.8 -1.5306666666666664 3 -1.5306666666666664 0.6399999999999999 0 1.1706666666666665 0.19066666666666665 1.5906666666666667 0.5706666666666667 0.44 0.37999999999999995 0.6586666666666666 0.9386666666666665 0.6586666666666666 1.68 0 1.24 -0.52 2.7906666666666666 -1.5599999999999998 4.650666666666666 -1.02 1.8399999999999999 -2.988 4.609333333333333 -5.9079999999999995 8.309333333333333l-2.969333333333333 0.208 -2.2813333333333334 -12.837333333333333h-3V9.653333333333332c0.7999999999999999 -0.26 1.7399999999999998 -0.5413333333333333 2.8200000000000003 -0.84 1.08 -0.31999999999999995 1.8106666666666666 -0.48 2.1906666666666665 -0.48Z" fill="#ffffff" stroke-width="1.3333"></path>
</svg>